<svg xmlns="http://www.w3.org/2000/svg" viewBox="0 0 64 64" fill="none" role="img" aria-label="OpenAI"><rect x="1" y="1" width="62" height="62" rx="15" fill="#0b0b0b"/><g transform="translate(32,32)" stroke="#ffffff" stroke-width="3" fill="none" stroke-linecap="round" stroke-linejoin="round"><g transform="rotate(0)"><path d="M0 -13 a 7.5 7.5 0 0 1 7.5 7.5 l 0 6"/></g><g transform="rotate(60)"><path d="M0 -13 a 7.5 7.5 0 0 1 7.5 7.5 l 0 6"/></g><g transform="rotate(120)"><path d="M0 -13 a 7.5 7.5 0 0 1 7.5 7.5 l 0 6"/></g><g transform="rotate(180)"><path d="M0 -13 a 7.5 7.5 0 0 1 7.5 7.5 l 0 6"/></g><g transform="rotate(240)"><path d="M0 -13 a 7.5 7.5 0 0 1 7.5 7.5 l 0 6"/></g><g transform="rotate(300)"><path d="M0 -13 a 7.5 7.5 0 0 1 7.5 7.5 l 0 6"/></g><circle cx="0" cy="0" r="3.2" fill="#ffffff" stroke="none"/></g></svg>